<mxfile host="65bd71144e">
    <diagram id="pudeqzRmg2WJObtJ_OHr" name="PÃ¡gina-1">
        <mxGraphModel dx="779" dy="520" grid="1" gridSize="10" guides="1" tooltips="1" connect="1" arrows="1" fold="1" page="1" pageScale="1" pageWidth="827" pageHeight="1169" math="0" shadow="0">
            <root>
                <mxCell id="0"/>
                <mxCell id="1" parent="0"/>
                <mxCell id="28" style="edgeStyle=none;html=1;" parent="1" source="3" target="7" edge="1">
                    <mxGeometry relative="1" as="geometry"/>
                </mxCell>
                <mxCell id="3" value="" style="html=1;verticalLabelPosition=bottom;align=center;labelBackgroundColor=#ffffff;verticalAlign=top;strokeWidth=2;strokeColor=#0080F0;shadow=0;dashed=0;shape=mxgraph.ios7.icons.smartphone;" parent="1" vertex="1">
                    <mxGeometry x="80" y="30" width="60" height="120" as="geometry"/>
                </mxCell>
                <mxCell id="27" style="edgeStyle=none;html=1;entryX=1;entryY=0.5;entryDx=0;entryDy=0;" parent="1" source="5" target="10" edge="1">
                    <mxGeometry relative="1" as="geometry"/>
                </mxCell>
                <mxCell id="5" value="" style="verticalLabelPosition=bottom;sketch=0;aspect=fixed;html=1;verticalAlign=top;strokeColor=none;align=center;outlineConnect=0;shape=mxgraph.citrix.desktop_web;" parent="1" vertex="1">
                    <mxGeometry x="710" y="20" width="76.5" height="90" as="geometry"/>
                </mxCell>
                <mxCell id="6" value="API" style="swimlane;whiteSpace=wrap;html=1;" parent="1" vertex="1">
                    <mxGeometry x="254" y="445" width="320" height="140" as="geometry"/>
                </mxCell>
                <mxCell id="7" value="BFF - NEST" style="rounded=1;whiteSpace=wrap;html=1;" parent="6" vertex="1">
                    <mxGeometry x="94" y="50" width="120" height="60" as="geometry"/>
                </mxCell>
                <mxCell id="8" style="edgeStyle=orthogonalEdgeStyle;rounded=0;orthogonalLoop=1;jettySize=auto;html=1;entryX=0.5;entryY=0;entryDx=0;entryDy=0;" parent="1" source="9" target="7" edge="1">
                    <mxGeometry relative="1" as="geometry">
                        <Array as="points">
                            <mxPoint x="580" y="413"/>
                            <mxPoint x="520" y="413"/>
                            <mxPoint x="520" y="480"/>
                            <mxPoint x="408" y="480"/>
                        </Array>
                    </mxGeometry>
                </mxCell>
                <mxCell id="9" value="WEB APPLICATION" style="swimlane;whiteSpace=wrap;html=1;" parent="1" vertex="1">
                    <mxGeometry x="420" y="180" width="320" height="150" as="geometry"/>
                </mxCell>
                <mxCell id="10" value="NEXT - REACT" style="rounded=1;whiteSpace=wrap;html=1;" parent="9" vertex="1">
                    <mxGeometry x="100" y="60" width="120" height="60" as="geometry"/>
                </mxCell>
                <mxCell id="11" value="MICROSERVICES" style="swimlane;whiteSpace=wrap;html=1;" parent="1" vertex="1">
                    <mxGeometry x="159" y="800" width="510" height="140" as="geometry"/>
                </mxCell>
                <mxCell id="12" value="MAIN - NEST" style="rounded=1;whiteSpace=wrap;html=1;" parent="11" vertex="1">
                    <mxGeometry x="20" y="50" width="120" height="60" as="geometry"/>
                </mxCell>
                <mxCell id="13" value="RECEIPTS&lt;br&gt;NEST" style="rounded=1;whiteSpace=wrap;html=1;" parent="11" vertex="1">
                    <mxGeometry x="340" y="50" width="120" height="60" as="geometry"/>
                </mxCell>
                <mxCell id="14" value="PROCESSING&lt;br&gt;NEST" style="rounded=1;whiteSpace=wrap;html=1;" parent="11" vertex="1">
                    <mxGeometry x="180" y="50" width="120" height="60" as="geometry"/>
                </mxCell>
                <mxCell id="15" style="edgeStyle=orthogonalEdgeStyle;rounded=0;orthogonalLoop=1;jettySize=auto;html=1;entryX=0.5;entryY=0;entryDx=0;entryDy=0;" parent="1" source="16" target="14" edge="1">
                    <mxGeometry relative="1" as="geometry">
                        <Array as="points">
                            <mxPoint x="313" y="790"/>
                            <mxPoint x="310" y="790"/>
                            <mxPoint x="310" y="840"/>
                            <mxPoint x="399" y="840"/>
                        </Array>
                    </mxGeometry>
                </mxCell>
                <mxCell id="16" value="" style="shape=image;verticalLabelPosition=bottom;labelBackgroundColor=default;verticalAlign=top;aspect=fixed;imageAspect=0;image=https://test.nastel.com/dev/wp-content/uploads/2022/05/rabbitmq.png;" parent="1" vertex="1">
                    <mxGeometry x="277.25" y="720" width="71.05" height="40" as="geometry"/>
                </mxCell>
                <mxCell id="17" style="edgeStyle=orthogonalEdgeStyle;rounded=0;orthogonalLoop=1;jettySize=auto;html=1;entryX=0.5;entryY=0;entryDx=0;entryDy=0;" parent="1" source="18" target="13" edge="1">
                    <mxGeometry relative="1" as="geometry">
                        <Array as="points">
                            <mxPoint x="483" y="790"/>
                            <mxPoint x="559" y="790"/>
                        </Array>
                    </mxGeometry>
                </mxCell>
                <mxCell id="18" value="" style="shape=image;verticalLabelPosition=bottom;labelBackgroundColor=default;verticalAlign=top;aspect=fixed;imageAspect=0;image=https://test.nastel.com/dev/wp-content/uploads/2022/05/rabbitmq.png;" parent="1" vertex="1">
                    <mxGeometry x="447.25" y="720" width="71.05" height="40" as="geometry"/>
                </mxCell>
                <mxCell id="19" value="" style="shape=image;verticalLabelPosition=bottom;labelBackgroundColor=default;verticalAlign=top;aspect=fixed;imageAspect=0;image=https://www.ambientelivre.com.br/media/k2/items/cache/e9432fccf28a953514f077b86e5e657a_M.jpg;" parent="1" vertex="1">
                    <mxGeometry x="329" y="1020" width="140" height="70" as="geometry"/>
                </mxCell>
                <mxCell id="20" style="edgeStyle=orthogonalEdgeStyle;rounded=0;orthogonalLoop=1;jettySize=auto;html=1;entryX=0;entryY=0.5;entryDx=0;entryDy=0;" parent="1" source="7" target="12" edge="1">
                    <mxGeometry relative="1" as="geometry">
                        <Array as="points">
                            <mxPoint x="100" y="525"/>
                            <mxPoint x="100" y="880"/>
                        </Array>
                    </mxGeometry>
                </mxCell>
                <mxCell id="21" style="edgeStyle=orthogonalEdgeStyle;rounded=0;orthogonalLoop=1;jettySize=auto;html=1;entryX=0;entryY=0.5;entryDx=0;entryDy=0;" parent="1" source="12" target="16" edge="1">
                    <mxGeometry relative="1" as="geometry"/>
                </mxCell>
                <mxCell id="22" style="edgeStyle=orthogonalEdgeStyle;rounded=0;orthogonalLoop=1;jettySize=auto;html=1;entryX=0;entryY=0.5;entryDx=0;entryDy=0;" parent="1" source="12" target="19" edge="1">
                    <mxGeometry relative="1" as="geometry">
                        <Array as="points">
                            <mxPoint x="319" y="880"/>
                            <mxPoint x="319" y="955"/>
                            <mxPoint x="220" y="955"/>
                            <mxPoint x="220" y="1035"/>
                        </Array>
                    </mxGeometry>
                </mxCell>
                <mxCell id="23" style="edgeStyle=orthogonalEdgeStyle;rounded=0;orthogonalLoop=1;jettySize=auto;html=1;" parent="1" source="14" target="18" edge="1">
                    <mxGeometry relative="1" as="geometry">
                        <Array as="points">
                            <mxPoint x="470" y="880"/>
                            <mxPoint x="470" y="805"/>
                            <mxPoint x="483" y="805"/>
                        </Array>
                    </mxGeometry>
                </mxCell>
                <mxCell id="24" style="edgeStyle=orthogonalEdgeStyle;rounded=0;orthogonalLoop=1;jettySize=auto;html=1;entryX=0.5;entryY=0;entryDx=0;entryDy=0;" parent="1" source="14" target="19" edge="1">
                    <mxGeometry relative="1" as="geometry"/>
                </mxCell>
                <mxCell id="25" style="edgeStyle=orthogonalEdgeStyle;rounded=0;orthogonalLoop=1;jettySize=auto;html=1;entryX=1;entryY=0.5;entryDx=0;entryDy=0;" parent="1" source="13" target="19" edge="1">
                    <mxGeometry relative="1" as="geometry">
                        <Array as="points">
                            <mxPoint x="650" y="880"/>
                            <mxPoint x="650" y="1035"/>
                        </Array>
                    </mxGeometry>
                </mxCell>
            </root>
        </mxGraphModel>
    </diagram>
</mxfile>